<svg height="630" width="1200" xmlns="http://www.w3.org/2000/svg" xmlns:xlink="http://www.w3.org/1999/xlink"><linearGradient id="a" x1="0%" x2="100%" y1="0%" y2="100%"><stop offset="0" stop-color="#060f09"/><stop offset="1" stop-color="#112216"/></linearGradient><linearGradient id="b" x1="0%" x2="100%" y1="0%" y2="0%"><stop offset="0" stop-color="#22c55e"/><stop offset="1" stop-color="#4ade80"/></linearGradient><filter id="c"><feGaussianBlur result="blur" stdDeviation="20"/><feComposite in="SourceGraphic" in2="blur" operator="over"/></filter><path d="m0 0h1200v630h-1200z" fill="url(#a)"/><g opacity=".04" stroke="#22c55e"><path d="m0 105h1200"/><path d="m0 210h1200"/><path d="m0 315h1200"/><path d="m0 420h1200"/><path d="m0 525h1200"/><path d="m200 0v630"/><path d="m400 0v630"/><path d="m600 0v630"/><path d="m800 0v630"/><path d="m1000 0v630"/></g><circle cx="600" cy="280" fill="#22c55e" filter="url(#c)" opacity=".06" r="280"/><rect fill="none" height="36" opacity=".4" rx="18" stroke="#22c55e" width="280" x="460" y="120"/><g text-anchor="middle"><text style="font-family:Arial, sans-serif;font-size:13;font-weight:600;fill:#22c55e;letter-spacing:3;opacity:.8" x="600" y="143">PREMIUM .NL DOMEINEN</text><text fill="#fff" font-family="Arial Black, sans-serif" font-size="72" font-weight="900" letter-spacing="-2" x="600" y="240">Chat Domeinen</text><text font-family="Arial Black, sans-serif" font-size="72" font-weight="900" letter-spacing="-2" x="600" y="320"><tspan fill="url(#b)">Te Koop</tspan></text></g><rect fill="url(#b)" height="2" opacity=".5" rx="1" width="280" x="460" y="350"/><g font-family="Arial, sans-serif" font-size="15" font-weight="500"><rect fill="#1a3322" height="34" rx="17" width="160" x="160" y="380"/><text fill="#4ade80" text-anchor="middle" x="240" y="402">jouwchat.nl</text><rect fill="#1a3322" height="34" rx="17" width="200" x="340" y="380"/><text fill="#4ade80" text-anchor="middle" x="440" y="402">chatspecialist.nl</text><rect fill="#1a3322" height="34" rx="17" width="180" x="560" y="380"/><text fill="#4ade80" text-anchor="middle" x="650" y="402">chatassist.nl</text><rect fill="#1a3322" height="34" rx="17" width="160" x="760" y="380"/><text fill="#4ade80" text-anchor="middle" x="840" y="402">chatzilla.nl</text><rect fill="#1a3322" height="34" rx="17" width="160" x="940" y="380"/><text fill="#4ade80" text-anchor="middle" x="1020" y="402">chattech.nl</text><rect fill="#1a3322" height="34" rx="17" width="220" x="270" y="430"/><text fill="#4ade80" text-anchor="middle" x="380" y="452">chattalent.nl</text><rect fill="#1a3322" height="34" rx="17" width="280" x="510" y="430"/><text fill="#4ade80" text-anchor="middle" x="650" y="452">chatklantenservice.nl</text><rect fill="#1a3322" height="34" rx="17" width="160" x="810" y="430"/><text fill="#4ade80" text-anchor="middle" x="890" y="452">+ meer...</text></g><text fill="#22c55e" font-family="Arial, sans-serif" font-size="22" opacity=".7" text-anchor="middle" x="600" y="560">jouwchat.nl</text><path d="m0 620h1200v10h-1200z" fill="url(#b)" opacity=".6"/></svg>